<svg id="Layer_1" data-name="Layer 1" xmlns="http://www.w3.org/2000/svg" viewBox="0 0 16 16"><defs><style>.cls-1{fill:#2b2422;}</style></defs><title>facebook</title><path class="cls-1" d="M8,0a8,8,0,1,0,8,8A8,8,0,0,0,8,0Zm4.58,11.86a.48.48,0,0,1-.48.48H9.72V8.91H10.8L11,7.76H9.72V6.82c-.06-.38.6-.78.6-.78h.55V4.86a10.36,10.36,0,0,0-1.07-.05A1.63,1.63,0,0,0,8,6.56V7.76H7.43V8.91H8v3.44H3.9a.48.48,0,0,1-.48-.48V4.24a.48.48,0,0,1,.48-.48H12.1a.48.48,0,0,1,.48.48Z" transform="translate(0 0)"/></svg>