<?xml version="1.0" encoding="utf-8"?>
<!-- Generator: Adobe Illustrator 21.1.0, SVG Export Plug-In . SVG Version: 6.00 Build 0)  -->
<svg version="1.1" id="Layer_1" xmlns="http://www.w3.org/2000/svg" xmlns:xlink="http://www.w3.org/1999/xlink" x="0px" y="0px"
	 viewBox="0 0 16 16" style="enable-background:new 0 0 16 16;" xml:space="preserve">
<style type="text/css">
	.st0{fill:#2B2422;}
</style>
<title>facebook</title>
<path class="st0" d="M8,0C3.6,0,0,3.6,0,8s3.6,8,8,8s8-3.6,8-8S12.4,0,8,0z M12.6,11.9c0,0.3-0.2,0.5-0.5,0.5H9.7V8.9h1.1L11,7.8
	H9.7V6.8C9.7,6.4,10.3,6,10.3,6h0.6V4.9c-0.4,0-0.7-0.1-1.1-0.1C8.9,4.7,8.1,5.4,8,6.3c0,0.1,0,0.2,0,0.3v1.2H7.4v1.1H8v3.4H3.9
	c-0.3,0-0.5-0.2-0.5-0.5V4.2c0-0.3,0.2-0.5,0.5-0.5l0,0h8.2c0.3,0,0.5,0.2,0.5,0.5V11.9z"/>
</svg>
