<svg id="Layer_1" data-name="Layer 1" xmlns="http://www.w3.org/2000/svg" viewBox="0 0 16 16"><defs><style>.cls-1{fill:#2b2422;}</style></defs><title>instagram</title><path class="cls-1" d="M10.81,7.86a2.72,2.72,0,0,1-3,2.66A2.8,2.8,0,0,1,5.72,9.19a2.44,2.44,0,0,1-.31-2H4.63v3.66A.34.34,0,0,0,5,11.2h6.18a.34.34,0,0,0,.34-.34V7.19h-.78A2.61,2.61,0,0,1,10.81,7.86Z" transform="translate(-0.02 0)"/><rect class="cls-1" x="9.77" y="4.33" width="1.72" height="1.72" rx="0.34" ry="0.34"/><circle class="cls-1" cx="8" cy="8" r="1.72"/><path class="cls-1" d="M8,0a8,8,0,1,0,8,8A8,8,0,0,0,8,0Zm3.59,12.34H4.52a1,1,0,0,1-1-1V4.22a1,1,0,0,1,1-1h7.09a1,1,0,0,1,1,1v7.09A1,1,0,0,1,11.61,12.34Z" transform="translate(-0.02 0)"/></svg>