<svg id="Layer_1" data-name="Layer 1" xmlns="http://www.w3.org/2000/svg" viewBox="0 0 557.24 410.65"><defs><style>.cls-1{fill:#d18419;}</style></defs><title>heading</title><path class="cls-1" d="M322.72,1450.87a1.95,1.95,0,1,1-2,2A1.89,1.89,0,0,1,322.72,1450.87Zm0,102a1.95,1.95,0,1,1-2,1.95A1.89,1.89,0,0,1,322.72,1552.86Zm6.45-102a1.95,1.95,0,1,1-2,2A1.89,1.89,0,0,1,329.17,1450.87Zm0,102a1.95,1.95,0,1,1-2,1.95A1.89,1.89,0,0,1,329.17,1552.86Zm6-96.3a1.95,1.95,0,1,1-1.95,1.95A1.89,1.89,0,0,1,335.17,1456.57Zm0,6.45a2,2,0,1,1-1.95,2A1.89,1.89,0,0,1,335.17,1463Zm0,6.45a1.95,1.95,0,1,1-1.95,1.95A1.89,1.89,0,0,1,335.17,1469.47Zm0,6.45a2,2,0,1,1-1.95,2A1.89,1.89,0,0,1,335.17,1475.92Zm0,6.45a1.95,1.95,0,1,1-1.95,1.95A1.89,1.89,0,0,1,335.17,1482.37Zm0,6.45a2,2,0,1,1-1.95,2A1.89,1.89,0,0,1,335.17,1488.82Zm0,6.45a1.95,1.95,0,1,1-1.95,1.95A1.89,1.89,0,0,1,335.17,1495.27Zm0,6.45a2,2,0,1,1-1.95,2A1.89,1.89,0,0,1,335.17,1501.72Zm0,6.45a1.95,1.95,0,1,1-1.95,2A1.89,1.89,0,0,1,335.17,1508.17Zm0,6.45a2,2,0,1,1-1.95,2A1.89,1.89,0,0,1,335.17,1514.62Zm0,6.45a1.95,1.95,0,1,1-1.95,2A1.89,1.89,0,0,1,335.17,1521.07Zm0,6.45a2,2,0,1,1-1.95,2A1.89,1.89,0,0,1,335.17,1527.51Zm0,6.45a1.95,1.95,0,1,1-1.95,2A1.89,1.89,0,0,1,335.17,1534Zm0,6.45a2,2,0,1,1-1.95,2A1.89,1.89,0,0,1,335.17,1540.41Zm0,6.45a1.95,1.95,0,1,1-1.95,2A1.89,1.89,0,0,1,335.17,1546.86Zm.45-96a1.95,1.95,0,1,1-2,2A1.89,1.89,0,0,1,335.62,1450.87Zm0,102a1.95,1.95,0,1,1-2,1.95A1.89,1.89,0,0,1,335.62,1552.86Zm6.15-102a1.95,1.95,0,1,1-2,2A1.89,1.89,0,0,1,341.77,1450.87Zm.3,102a1.95,1.95,0,1,1-2,1.95A1.89,1.89,0,0,1,342.06,1552.86Zm1.95-96a1.95,1.95,0,1,1-1.95,1.95A1.89,1.89,0,0,1,344,1456.87Zm2.1,6a1.95,1.95,0,1,1-1.95,1.95A1.89,1.89,0,0,1,346.11,1462.87Zm2.25,6a2,2,0,1,1-2,2A1.89,1.89,0,0,1,348.36,1468.87Zm.15,84a1.95,1.95,0,1,1-1.95,1.95A1.89,1.89,0,0,1,348.51,1552.86Zm1.95-78a1.95,1.95,0,1,1-1.95,2A1.89,1.89,0,0,1,350.46,1474.87Zm2.25,6a1.95,1.95,0,1,1-1.95,1.95A1.89,1.89,0,0,1,352.71,1480.87Zm2.1,6a2,2,0,1,1-2,2A1.89,1.89,0,0,1,354.81,1486.87Zm2.25,6a2,2,0,1,1-2,2A1.89,1.89,0,0,1,357.06,1492.87Zm1.95,6a1.95,1.95,0,1,1-1.95,2A1.89,1.89,0,0,1,359,1498.87Zm2.25,6a1.95,1.95,0,1,1-2,1.95A1.89,1.89,0,0,1,361.26,1504.87Zm2.25,6a1.95,1.95,0,1,1-2,1.95A1.89,1.89,0,0,1,363.51,1510.87Zm2.1,6a2,2,0,1,1-1.95,2A1.89,1.89,0,0,1,365.61,1516.87Zm2.25,6a1.95,1.95,0,1,1-1.95,2A1.89,1.89,0,0,1,367.86,1522.87Zm2.1,6a1.95,1.95,0,1,1-2,1.95A1.89,1.89,0,0,1,370,1528.87Zm2.25,6a2,2,0,1,1-2,2A1.89,1.89,0,0,1,372.21,1534.86Zm2.1,6a2,2,0,1,1-1.95,2A1.89,1.89,0,0,1,374.31,1540.86Zm2.25,6a1.95,1.95,0,1,1-1.95,2A1.89,1.89,0,0,1,376.56,1546.86Zm2.7,6a1.95,1.95,0,1,1-1.95,1.95A1.89,1.89,0,0,1,379.26,1552.86Zm2.85-6a1.95,1.95,0,1,1-1.95,2A1.89,1.89,0,0,1,382.11,1546.86Zm2.4-6a2,2,0,1,1-1.95,2A1.89,1.89,0,0,1,384.51,1540.86Zm2.25-6a2,2,0,1,1-2,2A1.89,1.89,0,0,1,386.76,1534.86Zm2.25-6a1.95,1.95,0,1,1-2,1.95A1.89,1.89,0,0,1,389,1528.87Zm2.25-6a1.95,1.95,0,1,1-1.95,2A1.89,1.89,0,0,1,391.26,1522.87Zm2.4-6a2,2,0,1,1-1.95,2A1.89,1.89,0,0,1,393.66,1516.87Zm2.25-6a1.95,1.95,0,1,1-1.95,1.95A1.89,1.89,0,0,1,395.91,1510.87Zm2.25-6a1.95,1.95,0,1,1-1.95,1.95A1.89,1.89,0,0,1,398.16,1504.87Zm2.4-6a1.95,1.95,0,1,1-1.95,2A1.89,1.89,0,0,1,400.56,1498.87Zm2.1-6a2,2,0,1,1-2,2A1.89,1.89,0,0,1,402.66,1492.87Zm2.25-6a2,2,0,1,1-2,2A1.89,1.89,0,0,1,404.91,1486.87Zm2.25-6a1.95,1.95,0,1,1-1.95,1.95A1.89,1.89,0,0,1,407.16,1480.87Zm2.4-6a1.95,1.95,0,1,1-1.95,2A1.89,1.89,0,0,1,409.56,1474.87Zm2.1-6a2,2,0,1,1-1.95,2A1.89,1.89,0,0,1,411.66,1468.87Zm.45,84a1.95,1.95,0,1,1-1.95,1.95A1.89,1.89,0,0,1,412.11,1552.86Zm2-90a1.95,1.95,0,1,1-2,1.95A1.89,1.89,0,0,1,414.06,1462.87Zm2.25-6a1.95,1.95,0,1,1-2,1.95A1.89,1.89,0,0,1,416.31,1456.87Zm2.25,96a1.95,1.95,0,1,1-2,1.95A1.89,1.89,0,0,1,418.56,1552.86Zm.15-102a1.95,1.95,0,1,1-2,2A1.89,1.89,0,0,1,418.71,1450.87Zm6.15,0a1.95,1.95,0,1,1-1.95,2A1.89,1.89,0,0,1,424.86,1450.87Zm.15,102a1.95,1.95,0,1,1-2,1.95A1.89,1.89,0,0,1,425,1552.86Zm.3-96.3a1.95,1.95,0,1,1-1.95,1.95A1.89,1.89,0,0,1,425.31,1456.57Zm0,6.45a2,2,0,1,1-1.95,2A1.89,1.89,0,0,1,425.31,1463Zm0,6.45a1.95,1.95,0,1,1-1.95,1.95A1.89,1.89,0,0,1,425.31,1469.47Zm0,6.45a2,2,0,1,1-1.95,2A1.89,1.89,0,0,1,425.31,1475.92Zm0,6.45a1.95,1.95,0,1,1-1.95,1.95A1.89,1.89,0,0,1,425.31,1482.37Zm0,6.45a2,2,0,1,1-1.95,2A1.89,1.89,0,0,1,425.31,1488.82Zm0,6.45a1.95,1.95,0,1,1-1.95,1.95A1.89,1.89,0,0,1,425.31,1495.27Zm0,6.45a2,2,0,1,1-1.95,2A1.89,1.89,0,0,1,425.31,1501.72Zm0,6.45a1.95,1.95,0,1,1-1.95,2A1.89,1.89,0,0,1,425.31,1508.17Zm0,6.45a2,2,0,1,1-1.95,2A1.89,1.89,0,0,1,425.31,1514.62Zm0,6.45a1.95,1.95,0,1,1-1.95,2A1.89,1.89,0,0,1,425.31,1521.07Zm0,6.45a2,2,0,1,1-1.95,2A1.89,1.89,0,0,1,425.31,1527.51Zm0,6.45a1.95,1.95,0,1,1-1.95,2A1.89,1.89,0,0,1,425.31,1534Zm0,6.45a2,2,0,1,1-1.95,2A1.89,1.89,0,0,1,425.31,1540.41Zm0,6.45a1.95,1.95,0,1,1-1.95,2A1.89,1.89,0,0,1,425.31,1546.86Zm6-96a1.95,1.95,0,1,1-1.95,2A1.89,1.89,0,0,1,431.31,1450.87Zm.15,102a1.95,1.95,0,1,1-2,1.95A1.89,1.89,0,0,1,431.46,1552.86Zm6.3-102a1.95,1.95,0,1,1-2,2A1.89,1.89,0,0,1,437.76,1450.87Zm.15,102a1.95,1.95,0,1,1-2,1.95A1.89,1.89,0,0,1,437.91,1552.86Zm12.6-37.35a1.95,1.95,0,1,1-2,2A1.89,1.89,0,0,1,450.51,1515.52Zm.15,6.45a2,2,0,1,1-1.95,2A1.89,1.89,0,0,1,450.66,1522Zm.15-12.9a2,2,0,1,1-1.95,2A1.89,1.89,0,0,1,450.81,1509.07Zm1,19.35a1.95,1.95,0,1,1-1.95,2A1.89,1.89,0,0,1,451.86,1528.42Zm.15-25.8a1.95,1.95,0,1,1-2,2A1.89,1.89,0,0,1,452,1502.62Zm1.95,32.1a1.95,1.95,0,1,1-1.95,2A1.89,1.89,0,0,1,454,1534.71Zm.3-38.4a1.95,1.95,0,1,1-2,2A1.89,1.89,0,0,1,454.26,1496.32Zm1.8,15.6a1.95,1.95,0,1,1-2,1.95A1.89,1.89,0,0,1,456.06,1511.92Zm1,28.65a1.95,1.95,0,1,1-1.95,2A1.89,1.89,0,0,1,457.11,1540.56Zm.3-49.95a2,2,0,1,1-1.95,2A1.89,1.89,0,0,1,457.41,1490.62Zm3.75,55a2,2,0,1,1-1.95,2A1.89,1.89,0,0,1,461.16,1545.66Zm.3-60a1.95,1.95,0,1,1-1.95,1.95A1.89,1.89,0,0,1,461.46,1485.67Zm1.2,26.25a1.95,1.95,0,1,1-1.95,1.95A1.89,1.89,0,0,1,462.66,1511.92Zm3.75,37.35a1.95,1.95,0,1,1-2,1.95A1.89,1.89,0,0,1,466.41,1549.26Zm.3-67.5a2,2,0,1,1-1.95,2A1.89,1.89,0,0,1,466.71,1481.77Zm2.55,30.15a1.95,1.95,0,1,1-1.95,1.95A1.89,1.89,0,0,1,469.26,1511.92Zm3,39.9a1.95,1.95,0,1,1-1.95,1.95A1.89,1.89,0,0,1,472.26,1551.81Zm.45-72.75a1.95,1.95,0,1,1-2,1.95A1.89,1.89,0,0,1,472.71,1479.07Zm3.15,32.85a1.95,1.95,0,1,1-1.95,1.95A1.89,1.89,0,0,1,475.86,1511.92Zm2.7,41.4a1.95,1.95,0,1,1-2,1.95A1.89,1.89,0,0,1,478.56,1553.31Zm.75-75.75a1.95,1.95,0,1,1-2,1.95A1.89,1.89,0,0,1,479.31,1477.57Zm3.15,34.35a1.95,1.95,0,1,1-2,1.95A1.89,1.89,0,0,1,482.46,1511.92Zm2.55,41.85a2,2,0,1,1-1.95,2A1.89,1.89,0,0,1,485,1553.76Zm.6-76.5a2,2,0,1,1-2,2A1.89,1.89,0,0,1,485.61,1477.27Zm3.45,34.65a1.95,1.95,0,1,1-1.95,1.95A1.89,1.89,0,0,1,489.06,1511.92Zm2.4,41.55a2,2,0,1,1-1.95,2A1.89,1.89,0,0,1,491.46,1553.46Zm.6-75.75a2,2,0,1,1-2,2A1.89,1.89,0,0,1,492.06,1477.72Zm3.6,34.2a1.95,1.95,0,1,1-1.95,1.95A1.89,1.89,0,0,1,495.66,1511.92Zm2.1,40.65a1.95,1.95,0,1,1-2,1.95A1.89,1.89,0,0,1,497.76,1552.56Zm.6-73.35a2,2,0,1,1-2,2A1.89,1.89,0,0,1,498.36,1479.22Zm3.9,32.7a1.95,1.95,0,1,1-2,1.95A1.89,1.89,0,0,1,502.26,1511.92Zm1.5-29.4a2,2,0,1,1-1.95,2A1.89,1.89,0,0,1,503.76,1482.52Zm0,68.25a2,2,0,1,1-1.95,2A1.89,1.89,0,0,1,503.76,1550.76Zm4.5-63.75a2,2,0,1,1-1.95,2A1.89,1.89,0,0,1,508.26,1487Zm.6,24.9a1.95,1.95,0,1,1-2,1.95A1.89,1.89,0,0,1,508.86,1511.92Zm.45,35.85a1.95,1.95,0,1,1-1.95,1.95A1.89,1.89,0,0,1,509.31,1547.76Zm2.25-55.35a2,2,0,1,1-1.95,2A1.89,1.89,0,0,1,511.56,1492.42Zm2.25,6.15a1.95,1.95,0,1,1-1.95,2A1.89,1.89,0,0,1,513.81,1498.57Zm.45,45.3a2,2,0,1,1-1.95,2A1.89,1.89,0,0,1,514.26,1543.86Zm.75-38.7a1.95,1.95,0,1,1-1.95,2A1.89,1.89,0,0,1,515,1505.17Zm.3,6.75a1.95,1.95,0,1,1-2,1.95A1.89,1.89,0,0,1,515.31,1511.92Zm11.85,40.95a1.95,1.95,0,1,1-2,1.95A1.89,1.89,0,0,1,527.16,1552.86Zm1.35-75.15a2,2,0,1,1-1.95,2A1.89,1.89,0,0,1,528.51,1477.72Zm5.55,75.15a1.95,1.95,0,1,1-1.95,1.95A1.89,1.89,0,0,1,534.06,1552.86Zm1.2-75.15a2,2,0,1,1-2,2A1.89,1.89,0,0,1,535.26,1477.72Zm3.15,70a1.95,1.95,0,1,1-2,1.95A1.89,1.89,0,0,1,538.41,1547.76Zm2.4,5.1a1.95,1.95,0,1,1-2,1.95A1.89,1.89,0,0,1,540.81,1552.86Zm.45-69.6a2,2,0,1,1-1.95,2A1.89,1.89,0,0,1,541.26,1483.27Zm.75-5.55a2,2,0,1,1-1.95,2A1.89,1.89,0,0,1,542,1477.72Zm.15,65.1a1.95,1.95,0,1,1-1.95,2A1.89,1.89,0,0,1,542.16,1542.81Zm2.85-54.75a2,2,0,1,1-2,2A1.89,1.89,0,0,1,545,1488.07Zm.45,49.8a2,2,0,1,1-2,2A1.89,1.89,0,0,1,545.46,1537.86Zm2.25,15a1.95,1.95,0,1,1-1.95,1.95A1.89,1.89,0,0,1,547.71,1552.86Zm1.05-75.15a2,2,0,1,1-2,2A1.89,1.89,0,0,1,548.76,1477.72Zm0,15.3a1.95,1.95,0,1,1-2,2A1.89,1.89,0,0,1,548.76,1493Zm.6,39.9a1.95,1.95,0,1,1-1.95,1.95A1.89,1.89,0,0,1,549.36,1532.92Zm3-34.8a1.95,1.95,0,1,1-1.95,2A1.89,1.89,0,0,1,552.36,1498.12Zm.3,29.85a2,2,0,1,1-1.95,2A1.89,1.89,0,0,1,552.66,1528Zm3.45-24.9a1.95,1.95,0,1,1-2,1.95A1.89,1.89,0,0,1,556.11,1503.07Zm.15,19.95a1.95,1.95,0,1,1-1.95,1.95A1.89,1.89,0,0,1,556.26,1523Zm3.45-15a2,2,0,1,1-1.95,2A1.89,1.89,0,0,1,559.71,1508Zm.15,10a1.95,1.95,0,1,1-2,2A1.89,1.89,0,0,1,559.86,1518.07Zm3.6-5.1a1.95,1.95,0,1,1-1.95,2A1.89,1.89,0,0,1,563.46,1513Zm3.6-5a2,2,0,1,1-1.95,2A1.89,1.89,0,0,1,567.06,1508Zm.15,10a1.95,1.95,0,1,1-2,2A1.89,1.89,0,0,1,567.21,1518.07Zm3.3-15a1.95,1.95,0,1,1-2,1.95A1.89,1.89,0,0,1,570.51,1503.07ZM571,1523A1.95,1.95,0,1,1,569,1525,1.89,1.89,0,0,1,571,1523Zm3-24.9a1.95,1.95,0,1,1-1.95,2A1.89,1.89,0,0,1,574,1498.12Zm.6,29.85a2,2,0,1,1-2,2A1.89,1.89,0,0,1,574.56,1528Zm.9-50.25a2,2,0,1,1-1.95,2A1.89,1.89,0,0,1,575.46,1477.72Zm2.1,15.3a1.95,1.95,0,1,1-2,2A1.89,1.89,0,0,1,577.56,1493Zm.75,39.9a1.95,1.95,0,1,1-2,1.95A1.89,1.89,0,0,1,578.31,1532.92Zm0,19.95a1.95,1.95,0,1,1-2,1.95A1.89,1.89,0,0,1,578.31,1552.86Zm2.55-64.8a2,2,0,1,1-2,2A1.89,1.89,0,0,1,580.86,1488.07Zm1.2,49.8a2,2,0,1,1-1.95,2A1.89,1.89,0,0,1,582.06,1537.86Zm.15-60.15a2,2,0,1,1-1.95,2A1.89,1.89,0,0,1,582.21,1477.72Zm2.1,5.55a2,2,0,1,1-1.95,2A1.89,1.89,0,0,1,584.31,1483.27Zm.9,69.6a1.95,1.95,0,1,1-1.95,1.95A1.89,1.89,0,0,1,585.21,1552.86Zm.3-10a1.95,1.95,0,1,1-2,2A1.89,1.89,0,0,1,585.51,1542.81Zm3.45-65.1a2,2,0,1,1-2,2A1.89,1.89,0,0,1,589,1477.72Zm.3,70a1.95,1.95,0,1,1-1.95,1.95A1.89,1.89,0,0,1,589.26,1547.76Zm2.85,5.1a1.95,1.95,0,1,1-2,1.95A1.89,1.89,0,0,1,592.11,1552.86Zm3.6-75.15a2,2,0,1,1-1.95,2A1.89,1.89,0,0,1,595.71,1477.72Zm3.3,75.15a1.95,1.95,0,1,1-1.95,1.95A1.89,1.89,0,0,1,599,1552.86Zm8.85-75.15a2,2,0,1,1-1.95,2A1.89,1.89,0,0,1,607.86,1477.72Zm.9,75.15a1.95,1.95,0,1,1-2,1.95A1.89,1.89,0,0,1,608.76,1552.86Zm5.7-75.15a2,2,0,1,1-2,2A1.89,1.89,0,0,1,614.46,1477.72Zm.9,75.15a1.95,1.95,0,1,1-2,1.95A1.89,1.89,0,0,1,615.36,1552.86Zm4.8-93a1.95,1.95,0,1,1-2,1.95A1.89,1.89,0,0,1,620.16,1459.87Zm.75,17.85a2,2,0,1,1-2,2A1.89,1.89,0,0,1,620.91,1477.72Zm0,7a2,2,0,1,1-2,2A1.89,1.89,0,0,1,620.91,1484.77Zm0,6.9a1.95,1.95,0,1,1-2,1.95A1.89,1.89,0,0,1,620.91,1491.67Zm0,6.9a1.95,1.95,0,1,1-2,2A1.89,1.89,0,0,1,620.91,1498.57Zm0,6.9a2,2,0,1,1-2,2A1.89,1.89,0,0,1,620.91,1505.47Zm0,6.75a1.95,1.95,0,1,1-2,2A1.89,1.89,0,0,1,620.91,1512.22Zm0,6.6a1.95,1.95,0,1,1-2,2A1.89,1.89,0,0,1,620.91,1518.82Zm0,6.75a1.95,1.95,0,1,1-2,1.95A1.89,1.89,0,0,1,620.91,1525.57Zm0,6.75a2,2,0,1,1-2,2A1.89,1.89,0,0,1,620.91,1532.31Zm0,6.9a1.95,1.95,0,1,1-2,1.95A1.89,1.89,0,0,1,620.91,1539.21Zm0,6.9a1.95,1.95,0,1,1-2,2A1.89,1.89,0,0,1,620.91,1546.11Zm1,6.75a1.95,1.95,0,1,1-1.95,1.95A1.89,1.89,0,0,1,622,1552.86Zm6.6,0a1.95,1.95,0,1,1-1.95,1.95A1.89,1.89,0,0,1,628.56,1552.86Zm6.6,0a1.95,1.95,0,1,1-2,1.95A1.89,1.89,0,0,1,635.16,1552.86Zm11.55-37.35a1.95,1.95,0,1,1-2,2A1.89,1.89,0,0,1,646.71,1515.52Zm.15,6.45a2,2,0,1,1-1.95,2A1.89,1.89,0,0,1,646.86,1522Zm.15-12.9a2,2,0,1,1-2,2A1.89,1.89,0,0,1,647,1509.07Zm1,19.35a1.95,1.95,0,1,1-2,2A1.89,1.89,0,0,1,648.06,1528.42Zm.15-25.8a1.95,1.95,0,1,1-2,2A1.89,1.89,0,0,1,648.21,1502.62Zm1.95,32.1a1.95,1.95,0,1,1-1.95,2A1.89,1.89,0,0,1,650.16,1534.71Zm.3-38.4a1.95,1.95,0,1,1-2,2A1.89,1.89,0,0,1,650.46,1496.32Zm2.85,44.25a1.95,1.95,0,1,1-2,2A1.89,1.89,0,0,1,653.31,1540.56Zm.3-49.95a2,2,0,1,1-2,2A1.89,1.89,0,0,1,653.61,1490.62Zm3.75,55a2,2,0,1,1-2,2A1.89,1.89,0,0,1,657.36,1545.66Zm.3-60a1.95,1.95,0,1,1-2,1.95A1.89,1.89,0,0,1,657.66,1485.67Zm5,63.6a1.95,1.95,0,1,1-2,1.95A1.89,1.89,0,0,1,662.61,1549.26Zm.3-67.5a2,2,0,1,1-2,2A1.89,1.89,0,0,1,662.91,1481.77Zm5.55,70a1.95,1.95,0,1,1-2,1.95A1.89,1.89,0,0,1,668.46,1551.81Zm.45-72.75a1.95,1.95,0,1,1-2,1.95A1.89,1.89,0,0,1,668.91,1479.07Zm5.85,74.25a1.95,1.95,0,1,1-2,1.95A1.89,1.89,0,0,1,674.76,1553.31Zm.75-75.6a2,2,0,1,1-2,2A1.89,1.89,0,0,1,675.51,1477.72Zm5.7,76a2,2,0,1,1-1.95,2A1.89,1.89,0,0,1,681.21,1553.76Zm.9-76.5a2,2,0,1,1-2,2A1.89,1.89,0,0,1,682.11,1477.27Zm5.55,76.2a2,2,0,1,1-2,2A1.89,1.89,0,0,1,687.66,1553.46Zm.9-76.2a2,2,0,1,1-1.95,2A1.89,1.89,0,0,1,688.56,1477.27Zm5.4,75a2,2,0,1,1-2,2A1.89,1.89,0,0,1,694,1552.26Zm.9-74.55a2,2,0,1,1-1.95,2A1.89,1.89,0,0,1,694.86,1477.72Zm5,72.3a2,2,0,1,1-2,2A1.89,1.89,0,0,1,699.81,1550Zm1.2-71.1a1.95,1.95,0,1,1-2,2A1.89,1.89,0,0,1,701,1478.92Zm4,67.8a2,2,0,1,1-2,2A1.89,1.89,0,0,1,705.06,1546.71ZM707,1481a2,2,0,1,1-1.95,2A1.89,1.89,0,0,1,707,1481Zm0,6.3a2,2,0,1,1-1.95,2A1.89,1.89,0,0,1,707,1487.32Zm0,6.3a2,2,0,1,1-1.95,2A1.89,1.89,0,0,1,707,1493.62Zm2.55,48.6a1.95,1.95,0,1,1-1.95,1.95A1.89,1.89,0,0,1,709.56,1542.21Zm13.2-8.7a2,2,0,1,1-2,2A1.89,1.89,0,0,1,722.76,1533.51Zm.75-6.45a1.95,1.95,0,1,1-2,1.95A1.89,1.89,0,0,1,723.51,1527.07Zm.15,12.75a2,2,0,1,1-1.95,2A1.89,1.89,0,0,1,723.66,1539.81Zm2.55-18.75a1.95,1.95,0,1,1-1.95,2A1.89,1.89,0,0,1,726.21,1521.07Zm.15,24.6a2,2,0,1,1-2,2A1.89,1.89,0,0,1,726.36,1545.66Zm2.4-62.25a1.95,1.95,0,1,1-1.95,2A1.89,1.89,0,0,1,728.76,1483.42Zm2.1,66.45a1.95,1.95,0,1,1-2,2A1.89,1.89,0,0,1,730.86,1549.86Zm.3-33a2,2,0,1,1-2,2A1.89,1.89,0,0,1,731.16,1516.87Zm3.6-36.3a1.95,1.95,0,1,1-2,1.95A1.89,1.89,0,0,1,734.76,1480.57Zm1.65,71.7a2,2,0,1,1-2,2A1.89,1.89,0,0,1,736.41,1552.26Zm.6-38.1a1.95,1.95,0,1,1-2,1.95A1.89,1.89,0,0,1,737,1514.17Zm4-35.4a2,2,0,1,1-2,2A1.89,1.89,0,0,1,741.06,1478.77Zm1.5,74.55a1.95,1.95,0,1,1-2,1.95A1.89,1.89,0,0,1,742.56,1553.31Zm.9-40.65a1.95,1.95,0,1,1-2,1.95A1.89,1.89,0,0,1,743.46,1512.67Zm4.35-35.1a1.95,1.95,0,1,1-2,1.95A1.89,1.89,0,0,1,747.81,1477.57Zm1.2,75.9a2,2,0,1,1-2,2A1.89,1.89,0,0,1,749,1553.46Zm1.2-41.4a2,2,0,1,1-1.95,2A1.89,1.89,0,0,1,750.21,1512.07Zm4-34.8a2,2,0,1,1-1.95,2A1.89,1.89,0,0,1,754.26,1477.27Zm.9,75.15a1.95,1.95,0,1,1-2,2A1.89,1.89,0,0,1,755.16,1552.41Zm1.65-40.2a1.95,1.95,0,1,1-1.95,2A1.89,1.89,0,0,1,756.81,1512.22Zm3.9-34.65a1.95,1.95,0,1,1-2,1.95A1.89,1.89,0,0,1,760.71,1477.57Zm.3,72.6a1.95,1.95,0,1,1-2,2A1.89,1.89,0,0,1,761,1550.16Zm2.55-37.2a1.95,1.95,0,1,1-2,2A1.89,1.89,0,0,1,763.56,1513Zm2.85,34a1.95,1.95,0,1,1-1.95,1.95A1.89,1.89,0,0,1,766.41,1547Zm.6-67.95a1.95,1.95,0,1,1-2,1.95A1.89,1.89,0,0,1,767,1479.07Zm3.15,35.1a1.95,1.95,0,1,1-1.95,1.95A1.89,1.89,0,0,1,770.16,1514.17Zm.75,28.65a1.95,1.95,0,1,1-1.95,2A1.89,1.89,0,0,1,770.91,1542.81Zm1.35-60.15a1.95,1.95,0,1,1-2,2A1.89,1.89,0,0,1,772.26,1482.67Zm2.7,5.85a1.95,1.95,0,1,1-1.95,2A1.89,1.89,0,0,1,775,1488.52Zm1.2,6.45a1.95,1.95,0,1,1-2,1.95A1.89,1.89,0,0,1,776.16,1495Zm.3,6.6a1.95,1.95,0,1,1-1.95,1.95A1.89,1.89,0,0,1,776.46,1501.57Zm0,6.6a1.95,1.95,0,1,1-1.95,2A1.89,1.89,0,0,1,776.46,1508.17Zm0,6.6a1.95,1.95,0,1,1-1.95,2A1.89,1.89,0,0,1,776.46,1514.77Zm0,6.6a1.95,1.95,0,1,1-1.95,2A1.89,1.89,0,0,1,776.46,1521.37Zm0,6.6a2,2,0,1,1-1.95,2A1.89,1.89,0,0,1,776.46,1528Zm0,6.6a2,2,0,1,1-1.95,2A1.89,1.89,0,0,1,776.46,1534.56Zm0,6.6a2,2,0,1,1-1.95,2A1.89,1.89,0,0,1,776.46,1541.16Zm0,6.9a1.95,1.95,0,1,1-1.95,1.95A1.89,1.89,0,0,1,776.46,1548.06Zm4,4.95a2,2,0,1,1-1.95,2A1.89,1.89,0,0,1,780.51,1553Zm6.15-.15a1.95,1.95,0,1,1-2,1.95A1.89,1.89,0,0,1,786.66,1552.86Zm9-75.15a2,2,0,1,1-2,2A1.89,1.89,0,0,1,795.66,1477.72Zm1.5,75.15a1.95,1.95,0,1,1-2,1.95A1.89,1.89,0,0,1,797.16,1552.86Zm4.8-75.15a2,2,0,1,1-2,2A1.89,1.89,0,0,1,802,1477.72Zm1.8,75.15a1.95,1.95,0,1,1-2,1.95A1.89,1.89,0,0,1,803.76,1552.86Zm4.5-75.15a2,2,0,1,1-2,2A1.89,1.89,0,0,1,808.26,1477.72Zm0,6.9a1.95,1.95,0,1,1-2,1.95A1.89,1.89,0,0,1,808.26,1484.62Zm0,6.9a1.95,1.95,0,1,1-2,2A1.89,1.89,0,0,1,808.26,1491.52Zm0,6.9a2,2,0,1,1-2,2A1.89,1.89,0,0,1,808.26,1498.42Zm0,6.9a1.95,1.95,0,1,1-2,1.95A1.89,1.89,0,0,1,808.26,1505.32Zm0,6.9a1.95,1.95,0,1,1-2,2A1.89,1.89,0,0,1,808.26,1512.22Zm0,6.9a2,2,0,1,1-2,2A1.89,1.89,0,0,1,808.26,1519.12Zm0,6.9a2,2,0,1,1-2,2A1.89,1.89,0,0,1,808.26,1526Zm0,6.9a1.95,1.95,0,1,1-2,1.95A1.89,1.89,0,0,1,808.26,1532.92Zm0,6.9a2,2,0,1,1-2,2A1.89,1.89,0,0,1,808.26,1539.81Zm0,6.9a2,2,0,1,1-2,2A1.89,1.89,0,0,1,808.26,1546.71Zm2.1,6.15a1.95,1.95,0,1,1-1.95,1.95A1.89,1.89,0,0,1,810.36,1552.86ZM814,1490a1.95,1.95,0,1,1-2,2A1.89,1.89,0,0,1,814,1490Zm3,62.85a1.95,1.95,0,1,1-1.95,1.95A1.89,1.89,0,0,1,817,1552.86Zm2.1-66.9a1.95,1.95,0,1,1-2,2A1.89,1.89,0,0,1,819.06,1486Zm4.5,66.9a1.95,1.95,0,1,1-2,1.95A1.89,1.89,0,0,1,823.56,1552.86Zm.9-70a2,2,0,1,1-2,2A1.89,1.89,0,0,1,824.46,1482.82Zm5.85-2.7a1.95,1.95,0,1,1-1.95,2A1.89,1.89,0,0,1,830.31,1480.12Zm6.3-2a2,2,0,1,1-2,2A1.89,1.89,0,0,1,836.61,1478.17Zm6.45-.9a2,2,0,1,1-2,2A1.89,1.89,0,0,1,843.06,1477.27Zm6.6,0a2,2,0,1,1-2,2A1.89,1.89,0,0,1,849.66,1477.27Zm0,75.6a1.95,1.95,0,1,1-2,1.95A1.89,1.89,0,0,1,849.66,1552.86Zm6.45-74.4a2,2,0,1,1-1.95,2A1.89,1.89,0,0,1,856.11,1478.47Zm.15,74.4a1.95,1.95,0,1,1-2,1.95A1.89,1.89,0,0,1,856.26,1552.86Zm4.8-70.5a1.95,1.95,0,1,1-2,1.95A1.89,1.89,0,0,1,861.06,1482.37Zm1.8,70.5a1.95,1.95,0,1,1-2,1.95A1.89,1.89,0,0,1,862.86,1552.86Zm.9-64.95a1.95,1.95,0,1,1-2,1.95A1.89,1.89,0,0,1,863.76,1487.92Zm1.2,6a2,2,0,1,1-1.95,2A1.89,1.89,0,0,1,865,1493.92Zm.3,6.6a1.95,1.95,0,1,1-2,1.95A1.89,1.89,0,0,1,865.26,1500.52Zm0,6.6a1.95,1.95,0,1,1-2,1.95A1.89,1.89,0,0,1,865.26,1507.12Zm0,6.6a1.95,1.95,0,1,1-2,1.95A1.89,1.89,0,0,1,865.26,1513.72Zm0,6.6a1.95,1.95,0,1,1-2,2A1.89,1.89,0,0,1,865.26,1520.32Zm0,6.6a1.95,1.95,0,1,1-2,2A1.89,1.89,0,0,1,865.26,1526.92Zm0,6.6a2,2,0,1,1-2,2A1.89,1.89,0,0,1,865.26,1533.51Zm0,6.6a2,2,0,1,1-2,2A1.89,1.89,0,0,1,865.26,1540.11Zm0,6.6a2,2,0,1,1-2,2A1.89,1.89,0,0,1,865.26,1546.71Zm4.2,6.15a1.95,1.95,0,1,1-1.95,1.95A1.89,1.89,0,0,1,869.46,1552.86Zm6.6,0a1.95,1.95,0,1,1-1.95,1.95A1.89,1.89,0,0,1,876.06,1552.86Zm-553.34,50a1.95,1.95,0,1,1-2,2A1.89,1.89,0,0,1,322.72,1602.87Zm0,102a1.95,1.95,0,1,1-2,1.95A1.89,1.89,0,0,1,322.72,1704.86Zm6.45-102a1.95,1.95,0,1,1-2,2A1.89,1.89,0,0,1,329.17,1602.87Zm0,102a1.95,1.95,0,1,1-2,1.95A1.89,1.89,0,0,1,329.17,1704.86Zm6.45-102a1.95,1.95,0,1,1-2,2A1.89,1.89,0,0,1,335.62,1602.87Zm0,102a1.95,1.95,0,1,1-2,1.95A1.89,1.89,0,0,1,335.62,1704.86Zm.6-96.15a2,2,0,1,1-2,2A1.89,1.89,0,0,1,336.22,1608.72Zm0,6.45a1.95,1.95,0,1,1-2,1.95A1.89,1.89,0,0,1,336.22,1615.17Zm0,6.45a2,2,0,1,1-2,2A1.89,1.89,0,0,1,336.22,1621.62Zm0,6.45a1.95,1.95,0,1,1-2,1.95A1.89,1.89,0,0,1,336.22,1628.07Zm0,6.45a2,2,0,1,1-2,2A1.89,1.89,0,0,1,336.22,1634.52Zm0,6.45a1.95,1.95,0,1,1-2,2A1.89,1.89,0,0,1,336.22,1641Zm0,6.45a2,2,0,1,1-2,2A1.89,1.89,0,0,1,336.22,1647.42Zm0,6.45a1.95,1.95,0,1,1-2,2A1.89,1.89,0,0,1,336.22,1653.87Zm0,6.45a2,2,0,1,1-2,2A1.89,1.89,0,0,1,336.22,1660.32Zm0,6.45a1.95,1.95,0,1,1-2,2A1.89,1.89,0,0,1,336.22,1666.77Zm0,6.45a2,2,0,1,1-2,2A1.89,1.89,0,0,1,336.22,1673.21Zm0,6.45a1.95,1.95,0,1,1-2,2A1.89,1.89,0,0,1,336.22,1679.67Zm0,6.45a1.95,1.95,0,1,1-2,1.95A1.89,1.89,0,0,1,336.22,1686.12Zm0,6.45a1.95,1.95,0,1,1-2,2A1.89,1.89,0,0,1,336.22,1692.56Zm0,6.45a1.95,1.95,0,1,1-2,1.95A1.89,1.89,0,0,1,336.22,1699Zm5.25-36a2,2,0,1,1-1.95,2A1.89,1.89,0,0,1,341.46,1663Zm.6-60.15a1.95,1.95,0,1,1-2,2A1.89,1.89,0,0,1,342.06,1602.87Zm0,102a1.95,1.95,0,1,1-2,1.95A1.89,1.89,0,0,1,342.06,1704.86Zm4-46.8a2,2,0,1,1-1.95,2A1.89,1.89,0,0,1,346.11,1658.07Zm2.4-55.2a1.95,1.95,0,1,1-1.95,2A1.89,1.89,0,0,1,348.51,1602.87Zm0,102a1.95,1.95,0,1,1-1.95,1.95A1.89,1.89,0,0,1,348.51,1704.86Zm2.25-51.75a1.95,1.95,0,1,1-2,2A1.89,1.89,0,0,1,350.76,1653.12Zm4.2-50.25a1.95,1.95,0,1,1-1.95,2A1.89,1.89,0,0,1,355,1602.87Zm0,102a1.95,1.95,0,1,1-1.95,1.95A1.89,1.89,0,0,1,355,1704.86Zm.3-56.7a2,2,0,1,1-1.95,2A1.89,1.89,0,0,1,355.26,1648.17Zm4.65-4.95a1.95,1.95,0,1,1-1.95,1.95A1.89,1.89,0,0,1,359.91,1643.22Zm2.7,5.85a1.95,1.95,0,1,1-2,2A1.89,1.89,0,0,1,362.61,1649.07Zm1.95-10.8a2,2,0,1,1-1.95,2A1.89,1.89,0,0,1,364.56,1638.27Zm1.8,16.35a1.95,1.95,0,1,1-1.95,2A1.89,1.89,0,0,1,366.36,1654.62Zm2.85-21.3a1.95,1.95,0,1,1-2,1.95A1.89,1.89,0,0,1,369.21,1633.32Zm.75,26.85a1.95,1.95,0,1,1-2,2A1.89,1.89,0,0,1,370,1660.17Zm3.75,5.55a1.95,1.95,0,1,1-1.95,1.95A1.89,1.89,0,0,1,373.71,1665.72Zm.15-37.35a1.95,1.95,0,1,1-2,2A1.89,1.89,0,0,1,373.86,1628.37Zm3.6,42.9a1.95,1.95,0,1,1-1.95,1.95A1.89,1.89,0,0,1,377.46,1671.27Zm.9-47.85a2,2,0,1,1-1.95,2A1.89,1.89,0,0,1,378.36,1623.42Zm2.7,53.4a1.95,1.95,0,1,1-2,1.95A1.89,1.89,0,0,1,381.06,1676.82Zm1.65-73.95a1.95,1.95,0,1,1-2,2A1.89,1.89,0,0,1,382.71,1602.87Zm.3,15.6a1.95,1.95,0,1,1-1.95,1.95A1.89,1.89,0,0,1,383,1618.47Zm1.8,63.9a1.95,1.95,0,1,1-1.95,1.95A1.89,1.89,0,0,1,384.81,1682.37Zm2.85-68.85a2,2,0,1,1-1.95,2A1.89,1.89,0,0,1,387.66,1613.52Zm.9,74.4a1.95,1.95,0,1,1-1.95,1.95A1.89,1.89,0,0,1,388.56,1687.92Zm.6-85a1.95,1.95,0,1,1-2,2A1.89,1.89,0,0,1,389.16,1602.87Zm3,90.6a1.95,1.95,0,1,1-2,1.95A1.89,1.89,0,0,1,392.16,1693.46Zm.15-84.9a1.95,1.95,0,1,1-2,1.95A1.89,1.89,0,0,1,392.31,1608.57Zm3.3-5.7a1.95,1.95,0,1,1-2,2A1.89,1.89,0,0,1,395.61,1602.87Zm.15,96.15a1.95,1.95,0,1,1-1.95,1.95A1.89,1.89,0,0,1,395.76,1699Zm2.7,5.85a1.95,1.95,0,1,1-1.95,1.95A1.89,1.89,0,0,1,398.46,1704.86Zm3.6-102a1.95,1.95,0,1,1-1.95,2A1.89,1.89,0,0,1,402.06,1602.87Zm2.85,102a1.95,1.95,0,1,1-2,1.95A1.89,1.89,0,0,1,404.91,1704.86Zm3.6-102a1.95,1.95,0,1,1-1.95,2A1.89,1.89,0,0,1,408.51,1602.87Zm2.85,102a1.95,1.95,0,1,1-2,1.95A1.89,1.89,0,0,1,411.36,1704.86Zm9.15-75.15a2,2,0,1,1-1.95,2A1.89,1.89,0,0,1,420.52,1629.72Zm.9,75.15a1.95,1.95,0,1,1-2,1.95A1.89,1.89,0,0,1,421.42,1704.86Zm5.7-75.15a2,2,0,1,1-2,2A1.89,1.89,0,0,1,427.12,1629.72Zm.9,75.15a1.95,1.95,0,1,1-2,1.95A1.89,1.89,0,0,1,428,1704.86Zm4.8-93a1.95,1.95,0,1,1-2,1.95A1.89,1.89,0,0,1,432.81,1611.87Zm.75,17.85a2,2,0,1,1-2,2A1.89,1.89,0,0,1,433.56,1629.72Zm0,7a2,2,0,1,1-2,2A1.89,1.89,0,0,1,433.56,1636.77Zm0,6.9a1.95,1.95,0,1,1-2,1.95A1.89,1.89,0,0,1,433.56,1643.67Zm0,6.9a1.95,1.95,0,1,1-2,2A1.89,1.89,0,0,1,433.56,1650.57Zm0,6.9a2,2,0,1,1-2,2A1.89,1.89,0,0,1,433.56,1657.47Zm0,6.75a1.95,1.95,0,1,1-2,2A1.89,1.89,0,0,1,433.56,1664.22Zm0,6.6a1.95,1.95,0,1,1-2,2A1.89,1.89,0,0,1,433.56,1670.82Zm0,6.75a1.95,1.95,0,1,1-2,1.95A1.89,1.89,0,0,1,433.56,1677.57Zm0,6.75a2,2,0,1,1-2,2A1.89,1.89,0,0,1,433.56,1684.31Zm0,6.9a1.95,1.95,0,1,1-2,1.95A1.89,1.89,0,0,1,433.56,1691.21Zm0,6.9a1.95,1.95,0,1,1-2,2A1.89,1.89,0,0,1,433.56,1698.11Zm1,6.75a1.95,1.95,0,1,1-1.95,1.95A1.89,1.89,0,0,1,434.61,1704.86Zm6.6,0a1.95,1.95,0,1,1-1.95,1.95A1.89,1.89,0,0,1,441.21,1704.86Zm6.6,0a1.95,1.95,0,1,1-2,1.95A1.89,1.89,0,0,1,447.81,1704.86Zm7.65-75.15a2,2,0,1,1-1.95,2A1.89,1.89,0,0,1,455.46,1629.72Zm6.45,0a2,2,0,1,1-1.95,2A1.89,1.89,0,0,1,461.91,1629.72Zm6.15-20.1a1.95,1.95,0,1,1-2,1.95A1.89,1.89,0,0,1,468.06,1609.62Zm0,6.75a2,2,0,1,1-2,2A1.89,1.89,0,0,1,468.06,1616.37Zm0,6.6a1.95,1.95,0,1,1-2,1.95A1.89,1.89,0,0,1,468.06,1623Zm0,6.75a2,2,0,1,1-2,2A1.89,1.89,0,0,1,468.06,1629.72Zm0,6.6a2,2,0,1,1-2,2A1.89,1.89,0,0,1,468.06,1636.32Zm0,6.75a2,2,0,1,1-2,2A1.89,1.89,0,0,1,468.06,1643.07Zm0,6.6a2,2,0,1,1-2,2A1.89,1.89,0,0,1,468.06,1649.67Zm0,6.75a1.95,1.95,0,1,1-2,2A1.89,1.89,0,0,1,468.06,1656.42Zm0,6.6a2,2,0,1,1-2,2A1.89,1.89,0,0,1,468.06,1663Zm0,6.75a1.95,1.95,0,1,1-2,2A1.89,1.89,0,0,1,468.06,1669.77Zm0,6.6a1.95,1.95,0,1,1-2,2A1.89,1.89,0,0,1,468.06,1676.37Zm0,6.75a1.95,1.95,0,1,1-2,1.95A1.89,1.89,0,0,1,468.06,1683.12Zm0,6.45a2,2,0,1,1-2,2A1.89,1.89,0,0,1,468.06,1689.56Zm.6,6.3a2,2,0,1,1-1.95,2A1.89,1.89,0,0,1,468.66,1695.86Zm2.55,5.55a2,2,0,1,1-2,2A1.89,1.89,0,0,1,471.21,1701.41Zm2.85-71.7a2,2,0,1,1-1.95,2A1.89,1.89,0,0,1,474.06,1629.72Zm2.4,75a2,2,0,1,1-1.95,2A1.89,1.89,0,0,1,476.46,1704.71Zm3.9-75a2,2,0,1,1-1.95,2A1.89,1.89,0,0,1,480.36,1629.72Zm2.25,76a2,2,0,1,1-2,2A1.89,1.89,0,0,1,482.61,1705.76Zm4-76a2,2,0,1,1-2,2A1.89,1.89,0,0,1,486.66,1629.72Zm2.1,75.6a1.95,1.95,0,1,1-2,1.95A1.89,1.89,0,0,1,488.76,1705.31Zm4.2-75.6a2,2,0,1,1-2,2A1.89,1.89,0,0,1,493,1629.72Zm1.65,73.65a1.95,1.95,0,1,1-2,2A1.89,1.89,0,0,1,494.61,1703.36Zm11.85-35.85a1.95,1.95,0,1,1-2,2A1.89,1.89,0,0,1,506.46,1667.52Zm.15,6.45a2,2,0,1,1-1.95,2A1.89,1.89,0,0,1,506.61,1674Zm.15-12.9a2,2,0,1,1-1.95,2A1.89,1.89,0,0,1,506.76,1661.07Zm1,19.35a1.95,1.95,0,1,1-1.95,2A1.89,1.89,0,0,1,507.81,1680.42Zm.15-25.8a1.95,1.95,0,1,1-2,2A1.89,1.89,0,0,1,508,1654.62Zm1.95,32.1a1.95,1.95,0,1,1-1.95,2A1.89,1.89,0,0,1,509.91,1686.71Zm.3-38.4a1.95,1.95,0,1,1-2,2A1.89,1.89,0,0,1,510.21,1648.32Zm2.85,44.25a1.95,1.95,0,1,1-1.95,2A1.89,1.89,0,0,1,513.06,1692.56Zm.3-49.95a2,2,0,1,1-1.95,2A1.89,1.89,0,0,1,513.36,1642.62Zm3.75,55a2,2,0,1,1-1.95,2A1.89,1.89,0,0,1,517.11,1697.66Zm.3-60a1.95,1.95,0,1,1-1.95,1.95A1.89,1.89,0,0,1,517.41,1637.67Zm5,63.6a1.95,1.95,0,1,1-2,1.95A1.89,1.89,0,0,1,522.36,1701.26Zm.3-67.5a2,2,0,1,1-1.95,2A1.89,1.89,0,0,1,522.66,1633.77Zm5.55,70a1.95,1.95,0,1,1-1.95,1.95A1.89,1.89,0,0,1,528.21,1703.81Zm.45-72.75a1.95,1.95,0,1,1-2,1.95A1.89,1.89,0,0,1,528.66,1631.07Zm5.85,74.25a1.95,1.95,0,1,1-2,1.95A1.89,1.89,0,0,1,534.51,1705.31Zm.75-75.6a2,2,0,1,1-2,2A1.89,1.89,0,0,1,535.26,1629.72Zm5.7,76a2,2,0,1,1-1.95,2A1.89,1.89,0,0,1,541,1705.76Zm.9-76.5a2,2,0,1,1-1.95,2A1.89,1.89,0,0,1,541.86,1629.27Zm5.55,76.2a2,2,0,1,1-1.95,2A1.89,1.89,0,0,1,547.41,1705.46Zm.9-76.2a2,2,0,1,1-1.95,2A1.89,1.89,0,0,1,548.31,1629.27Zm5.4,75a2,2,0,1,1-2,2A1.89,1.89,0,0,1,553.71,1704.26Zm.9-74.55a2,2,0,1,1-1.95,2A1.89,1.89,0,0,1,554.61,1629.72Zm4.95,72.3a2,2,0,1,1-1.95,2A1.89,1.89,0,0,1,559.56,1702Zm1.2-71.1a1.95,1.95,0,1,1-2,2A1.89,1.89,0,0,1,560.76,1630.92Zm4,67.8a2,2,0,1,1-2,2A1.89,1.89,0,0,1,564.81,1698.71Zm1.95-65.7a2,2,0,1,1-1.95,2A1.89,1.89,0,0,1,566.76,1633Zm0,6.3a2,2,0,1,1-1.95,2A1.89,1.89,0,0,1,566.76,1639.32Zm0,6.3a2,2,0,1,1-1.95,2A1.89,1.89,0,0,1,566.76,1645.62Zm2.55,48.6a1.95,1.95,0,1,1-1.95,1.95A1.89,1.89,0,0,1,569.31,1694.21Zm10.05-91.35a1.95,1.95,0,1,1-1.95,2A1.89,1.89,0,0,1,579.36,1602.87Zm2.1,102a1.95,1.95,0,1,1-2,1.95A1.89,1.89,0,0,1,581.46,1704.86Zm4.5-102a1.95,1.95,0,1,1-1.95,2A1.89,1.89,0,0,1,586,1602.87Zm2.1,102a1.95,1.95,0,1,1-2,1.95A1.89,1.89,0,0,1,588.06,1704.86Zm4.5-102a1.95,1.95,0,1,1-1.95,2A1.89,1.89,0,0,1,592.56,1602.87Zm0,6.45a1.95,1.95,0,1,1-1.95,1.95A1.89,1.89,0,0,1,592.56,1609.32Zm0,6.45a1.95,1.95,0,1,1-1.95,2A1.89,1.89,0,0,1,592.56,1615.77Zm0,6.45a1.95,1.95,0,1,1-1.95,1.95A1.89,1.89,0,0,1,592.56,1622.22Zm0,6.45a2,2,0,1,1-1.95,2A1.89,1.89,0,0,1,592.56,1628.67Zm0,6.45a1.95,1.95,0,1,1-1.95,1.95A1.89,1.89,0,0,1,592.56,1635.12Zm0,6.45a2,2,0,1,1-1.95,2A1.89,1.89,0,0,1,592.56,1641.57Zm0,6.45a1.95,1.95,0,1,1-1.95,1.95A1.89,1.89,0,0,1,592.56,1648Zm0,6.45a2,2,0,1,1-1.95,2A1.89,1.89,0,0,1,592.56,1654.47Zm0,6.45a1.95,1.95,0,1,1-1.95,2A1.89,1.89,0,0,1,592.56,1660.92Zm0,6.45a2,2,0,1,1-1.95,2A1.89,1.89,0,0,1,592.56,1667.37Zm0,6.45a1.95,1.95,0,1,1-1.95,2A1.89,1.89,0,0,1,592.56,1673.82Zm0,6.45a2,2,0,1,1-1.95,2A1.89,1.89,0,0,1,592.56,1680.26Zm0,6.45a1.95,1.95,0,1,1-1.95,2A1.89,1.89,0,0,1,592.56,1686.71Zm0,6.45a2,2,0,1,1-1.95,2A1.89,1.89,0,0,1,592.56,1693.16Zm0,6.45a1.95,1.95,0,1,1-1.95,2A1.89,1.89,0,0,1,592.56,1699.61Zm2.1,5.25a1.95,1.95,0,1,1-1.95,1.95A1.89,1.89,0,0,1,594.66,1704.86Zm3.6-62.85a1.95,1.95,0,1,1-2,2A1.89,1.89,0,0,1,598.26,1642Zm3,62.85a1.95,1.95,0,1,1-1.95,1.95A1.89,1.89,0,0,1,601.26,1704.86Zm2.1-66.9a1.95,1.95,0,1,1-1.95,2A1.89,1.89,0,0,1,603.36,1638Zm4.5,66.9a1.95,1.95,0,1,1-2,1.95A1.89,1.89,0,0,1,607.86,1704.86Zm.9-70a2,2,0,1,1-2,2A1.89,1.89,0,0,1,608.76,1634.82Zm5.85-2.7a1.95,1.95,0,1,1-1.95,2A1.89,1.89,0,0,1,614.61,1632.12Zm6.3-2a2,2,0,1,1-2,2A1.89,1.89,0,0,1,620.91,1630.17Zm6.45-.9a2,2,0,1,1-1.95,2A1.89,1.89,0,0,1,627.36,1629.27Zm6.6,0a2,2,0,1,1-1.95,2A1.89,1.89,0,0,1,634,1629.27Zm0,75.6a1.95,1.95,0,1,1-1.95,1.95A1.89,1.89,0,0,1,634,1704.86Zm6.45-74.4a2,2,0,1,1-1.95,2A1.89,1.89,0,0,1,640.41,1630.47Zm.15,74.4a1.95,1.95,0,1,1-1.95,1.95A1.89,1.89,0,0,1,640.56,1704.86Zm4.8-70.5a1.95,1.95,0,1,1-1.95,1.95A1.89,1.89,0,0,1,645.36,1634.37Zm1.8,70.5a1.95,1.95,0,1,1-2,1.95A1.89,1.89,0,0,1,647.16,1704.86Zm.9-64.95a1.95,1.95,0,1,1-2,1.95A1.89,1.89,0,0,1,648.06,1639.92Zm1.2,6a2,2,0,1,1-2,2A1.89,1.89,0,0,1,649.26,1645.92Zm.3,6.6a1.95,1.95,0,1,1-2,1.95A1.89,1.89,0,0,1,649.56,1652.52Zm0,6.6a1.95,1.95,0,1,1-2,1.95A1.89,1.89,0,0,1,649.56,1659.12Zm0,6.6a1.95,1.95,0,1,1-2,1.95A1.89,1.89,0,0,1,649.56,1665.72Zm0,6.6a1.95,1.95,0,1,1-2,2A1.89,1.89,0,0,1,649.56,1672.32Zm0,6.6a1.95,1.95,0,1,1-2,2A1.89,1.89,0,0,1,649.56,1678.92Zm0,6.6a2,2,0,1,1-2,2A1.89,1.89,0,0,1,649.56,1685.51Zm0,6.6a2,2,0,1,1-2,2A1.89,1.89,0,0,1,649.56,1692.11Zm0,6.6a2,2,0,1,1-2,2A1.89,1.89,0,0,1,649.56,1698.71Zm4.2,6.15a1.95,1.95,0,1,1-2,1.95A1.89,1.89,0,0,1,653.76,1704.86Zm6.6,0a1.95,1.95,0,1,1-2,1.95A1.89,1.89,0,0,1,660.36,1704.86Zm11.55-37.35a1.95,1.95,0,1,1-2,2A1.89,1.89,0,0,1,671.91,1667.52Zm.15,6.45a2,2,0,1,1-2,2A1.89,1.89,0,0,1,672.06,1674Zm.15-12.9a2,2,0,1,1-1.95,2A1.89,1.89,0,0,1,672.21,1661.07Zm1.05,19.35a1.95,1.95,0,1,1-2,2A1.89,1.89,0,0,1,673.26,1680.42Zm.15-25.8a1.95,1.95,0,1,1-2,2A1.89,1.89,0,0,1,673.41,1654.62Zm2,32.1a1.95,1.95,0,1,1-2,2A1.89,1.89,0,0,1,675.36,1686.71Zm.3-38.4a1.95,1.95,0,1,1-2,2A1.89,1.89,0,0,1,675.66,1648.32Zm1.8,15.6a1.95,1.95,0,1,1-2,1.95A1.89,1.89,0,0,1,677.46,1663.92Zm1,28.65a1.95,1.95,0,1,1-1.95,2A1.89,1.89,0,0,1,678.51,1692.56Zm.3-49.95a2,2,0,1,1-1.95,2A1.89,1.89,0,0,1,678.81,1642.62Zm3.75,55a2,2,0,1,1-1.95,2A1.89,1.89,0,0,1,682.56,1697.66Zm.3-60a1.95,1.95,0,1,1-2,1.95A1.89,1.89,0,0,1,682.86,1637.67Zm1.2,26.25a1.95,1.95,0,1,1-1.95,1.95A1.89,1.89,0,0,1,684.06,1663.92Zm3.75,37.35a1.95,1.95,0,1,1-2,1.95A1.89,1.89,0,0,1,687.81,1701.26Zm.3-67.5a2,2,0,1,1-1.95,2A1.89,1.89,0,0,1,688.11,1633.77Zm2.55,30.15a1.95,1.95,0,1,1-1.95,1.95A1.89,1.89,0,0,1,690.66,1663.92Zm3,39.9a1.95,1.95,0,1,1-1.95,1.95A1.89,1.89,0,0,1,693.66,1703.81Zm.45-72.75a1.95,1.95,0,1,1-2,1.95A1.89,1.89,0,0,1,694.11,1631.07Zm3.15,32.85a1.95,1.95,0,1,1-2,1.95A1.89,1.89,0,0,1,697.26,1663.92Zm2.7,41.4a1.95,1.95,0,1,1-2,1.95A1.89,1.89,0,0,1,700,1705.31Zm.75-75.75a1.95,1.95,0,1,1-2,1.95A1.89,1.89,0,0,1,700.71,1629.57Zm3.15,34.35a1.95,1.95,0,1,1-2,1.95A1.89,1.89,0,0,1,703.86,1663.92Zm2.55,41.85a2,2,0,1,1-2,2A1.89,1.89,0,0,1,706.41,1705.76Zm.6-76.5a2,2,0,1,1-2,2A1.89,1.89,0,0,1,707,1629.27Zm3.45,34.65a1.95,1.95,0,1,1-2,1.95A1.89,1.89,0,0,1,710.46,1663.92Zm2.4,41.55a2,2,0,1,1-1.95,2A1.89,1.89,0,0,1,712.86,1705.46Zm.6-75.75a2,2,0,1,1-2,2A1.89,1.89,0,0,1,713.46,1629.72Zm3.6,34.2a1.95,1.95,0,1,1-2,1.95A1.89,1.89,0,0,1,717.06,1663.92Zm2.1,40.65a1.95,1.95,0,1,1-2,1.95A1.89,1.89,0,0,1,719.16,1704.56Zm.6-73.35a2,2,0,1,1-2,2A1.89,1.89,0,0,1,719.76,1631.22Zm3.9,32.7a1.95,1.95,0,1,1-2,1.95A1.89,1.89,0,0,1,723.66,1663.92Zm1.5-29.4a2,2,0,1,1-2,2A1.89,1.89,0,0,1,725.16,1634.52Zm0,68.25a2,2,0,1,1-2,2A1.89,1.89,0,0,1,725.16,1702.76Zm4.5-63.75a2,2,0,1,1-2,2A1.89,1.89,0,0,1,729.66,1639Zm.6,24.9a1.95,1.95,0,1,1-2,1.95A1.89,1.89,0,0,1,730.26,1663.92Zm.45,35.85a1.95,1.95,0,1,1-2,1.95A1.89,1.89,0,0,1,730.71,1699.76Zm2.25-55.35a2,2,0,1,1-2,2A1.89,1.89,0,0,1,733,1644.42Zm2.25,6.15a1.95,1.95,0,1,1-2,2A1.89,1.89,0,0,1,735.21,1650.57Zm.45,45.3a2,2,0,1,1-2,2A1.89,1.89,0,0,1,735.66,1695.86Zm.75-38.7a1.95,1.95,0,1,1-1.95,2A1.89,1.89,0,0,1,736.41,1657.17Zm.3,6.75a1.95,1.95,0,1,1-2,1.95A1.89,1.89,0,0,1,736.71,1663.92Zm11.1-34.2a2,2,0,1,1-2,2A1.89,1.89,0,0,1,747.81,1629.72Zm1.5,75.15a1.95,1.95,0,1,1-2,1.95A1.89,1.89,0,0,1,749.31,1704.86Zm4.8-75.15a2,2,0,1,1-2,2A1.89,1.89,0,0,1,754.11,1629.72Zm1.8,75.15a1.95,1.95,0,1,1-2,1.95A1.89,1.89,0,0,1,755.91,1704.86Zm4.5-75.15a2,2,0,1,1-2,2A1.89,1.89,0,0,1,760.41,1629.72Zm0,6.9a1.95,1.95,0,1,1-2,1.95A1.89,1.89,0,0,1,760.41,1636.62Zm0,6.9a1.95,1.95,0,1,1-2,2A1.89,1.89,0,0,1,760.41,1643.52Zm0,6.9a2,2,0,1,1-2,2A1.89,1.89,0,0,1,760.41,1650.42Zm0,6.9a1.95,1.95,0,1,1-2,1.95A1.89,1.89,0,0,1,760.41,1657.32Zm0,6.9a1.95,1.95,0,1,1-2,2A1.89,1.89,0,0,1,760.41,1664.22Zm0,6.9a2,2,0,1,1-2,2A1.89,1.89,0,0,1,760.41,1671.12Zm0,6.9a2,2,0,1,1-2,2A1.89,1.89,0,0,1,760.41,1678Zm0,6.9a1.95,1.95,0,1,1-2,1.95A1.89,1.89,0,0,1,760.41,1684.92Zm0,6.9a2,2,0,1,1-2,2A1.89,1.89,0,0,1,760.41,1691.81Zm0,6.9a2,2,0,1,1-2,2A1.89,1.89,0,0,1,760.41,1698.71Zm2.1,6.15a1.95,1.95,0,1,1-1.95,1.95A1.89,1.89,0,0,1,762.51,1704.86Zm3.6-62.85a1.95,1.95,0,1,1-2,2A1.89,1.89,0,0,1,766.11,1642Zm3,62.85a1.95,1.95,0,1,1-1.95,1.95A1.89,1.89,0,0,1,769.11,1704.86Zm2.1-66.9a1.95,1.95,0,1,1-2,2A1.89,1.89,0,0,1,771.21,1638Zm4.5,66.9a1.95,1.95,0,1,1-2,1.95A1.89,1.89,0,0,1,775.71,1704.86Zm.9-70a2,2,0,1,1-2,2A1.89,1.89,0,0,1,776.61,1634.82Zm5.85-2.7a1.95,1.95,0,1,1-1.95,2A1.89,1.89,0,0,1,782.46,1632.12Zm6.3-2a2,2,0,1,1-2,2A1.89,1.89,0,0,1,788.76,1630.17Zm6.45-.9a2,2,0,1,1-2,2A1.89,1.89,0,0,1,795.21,1629.27Zm6.6,0a2,2,0,1,1-2,2A1.89,1.89,0,0,1,801.81,1629.27Zm0,75.6a1.95,1.95,0,1,1-2,1.95A1.89,1.89,0,0,1,801.81,1704.86Zm6.45-74.4a2,2,0,1,1-1.95,2A1.89,1.89,0,0,1,808.26,1630.47Zm.15,74.4a1.95,1.95,0,1,1-2,1.95A1.89,1.89,0,0,1,808.41,1704.86Zm4.8-70.5a1.95,1.95,0,1,1-2,1.95A1.89,1.89,0,0,1,813.21,1634.37Zm1.8,70.5a1.95,1.95,0,1,1-2,1.95A1.89,1.89,0,0,1,815,1704.86Zm.9-64.95a1.95,1.95,0,1,1-2,1.95A1.89,1.89,0,0,1,815.91,1639.92Zm1.2,6a2,2,0,1,1-1.95,2A1.89,1.89,0,0,1,817.11,1645.92Zm.3,6.6a1.95,1.95,0,1,1-2,1.95A1.89,1.89,0,0,1,817.41,1652.52Zm0,6.6a1.95,1.95,0,1,1-2,1.95A1.89,1.89,0,0,1,817.41,1659.12Zm0,6.6a1.95,1.95,0,1,1-2,1.95A1.89,1.89,0,0,1,817.41,1665.72Zm0,6.6a1.95,1.95,0,1,1-2,2A1.89,1.89,0,0,1,817.41,1672.32Zm0,6.6a1.95,1.95,0,1,1-2,2A1.89,1.89,0,0,1,817.41,1678.92Zm0,6.6a2,2,0,1,1-2,2A1.89,1.89,0,0,1,817.41,1685.51Zm0,6.6a2,2,0,1,1-2,2A1.89,1.89,0,0,1,817.41,1692.11Zm0,6.6a2,2,0,1,1-2,2A1.89,1.89,0,0,1,817.41,1698.71Zm4.2,6.15a1.95,1.95,0,1,1-1.95,1.95A1.89,1.89,0,0,1,821.61,1704.86Zm6.6,0a1.95,1.95,0,1,1-1.95,1.95A1.89,1.89,0,0,1,828.21,1704.86ZM324.22,1827a1.95,1.95,0,1,1-2,1.95A1.89,1.89,0,0,1,324.22,1827Zm.3,6.15a1.95,1.95,0,1,1-1.95,2A1.89,1.89,0,0,1,324.52,1833.17Zm.15-12.15a1.95,1.95,0,1,1-1.95,2A1.89,1.89,0,0,1,324.67,1821Zm1.35,18.3a2,2,0,1,1-2,2A1.89,1.89,0,0,1,326,1839.31Zm.6-24.6a1.95,1.95,0,1,1-2,2A1.89,1.89,0,0,1,326.62,1814.72Zm2.25,30.15a2,2,0,1,1-1.95,2A1.89,1.89,0,0,1,328.87,1844.86Zm1.05-35.55a1.95,1.95,0,1,1-2,1.95A1.89,1.89,0,0,1,329.92,1809.32Zm3.45,40.35a2,2,0,1,1-1.95,2A1.89,1.89,0,0,1,333.37,1849.66Zm.75-44.85a1.95,1.95,0,1,1-1.95,1.95A1.89,1.89,0,0,1,334.12,1804.82Zm4.65,48.6a2,2,0,1,1-2,2A1.89,1.89,0,0,1,338.77,1853.41Zm.6-52.5a2,2,0,1,1-2,2A1.89,1.89,0,0,1,339.37,1800.92Zm3.3-26.7a1.95,1.95,0,1,1-2,1.95A1.89,1.89,0,0,1,342.67,1774.22Zm.45,6.3a1.95,1.95,0,1,1-1.95,1.95A1.89,1.89,0,0,1,343.11,1780.52Zm.6-12.45a2,2,0,1,1-1.95,2A1.89,1.89,0,0,1,343.71,1768.07Zm.9,87.75a1.95,1.95,0,1,1-1.95,1.95A1.89,1.89,0,0,1,344.61,1855.81Zm.15-57.9a2,2,0,1,1-1.95,2A1.89,1.89,0,0,1,344.76,1797.92Zm.3-11.25a1.95,1.95,0,1,1-2,2A1.89,1.89,0,0,1,345.06,1786.67Zm1.65-24.15a2,2,0,1,1-2,2A1.89,1.89,0,0,1,346.71,1762.52Zm1.35,29.85a2,2,0,1,1-1.95,2A1.89,1.89,0,0,1,348.06,1792.37Zm2.85,64.8a1.95,1.95,0,1,1-1.95,2A1.89,1.89,0,0,1,350.91,1857.16Zm.3-98.85a1.95,1.95,0,1,1-1.95,1.95A1.89,1.89,0,0,1,351.21,1758.32Zm.45,39.45a1.95,1.95,0,1,1-2,2A1.89,1.89,0,0,1,351.66,1797.77Zm4.35,5.1a1.95,1.95,0,1,1-1.95,2A1.89,1.89,0,0,1,356,1802.87Zm1.05-47.4a2,2,0,1,1-2,2A1.89,1.89,0,0,1,357.06,1755.47Zm.3,102.15a1.95,1.95,0,1,1-1.95,1.95A1.89,1.89,0,0,1,357.36,1857.61Zm3.15-49.8a1.95,1.95,0,1,1-1.95,1.95A1.89,1.89,0,0,1,360.51,1807.82Zm3.15-53.4a2,2,0,1,1-1.95,2A1.89,1.89,0,0,1,363.66,1754.42Zm.3,102.9a1.95,1.95,0,1,1-1.95,1.95A1.89,1.89,0,0,1,364,1857.31Zm.75-44.7a1.95,1.95,0,1,1-1.95,1.95A1.89,1.89,0,0,1,364.71,1812.62Zm4.5,5.1a1.95,1.95,0,1,1-2,1.95A1.89,1.89,0,0,1,369.21,1817.72Zm1-63.15a1.95,1.95,0,1,1-1.95,2A1.89,1.89,0,0,1,370.26,1754.57Zm.15,101.25a1.95,1.95,0,1,1-1.95,1.95A1.89,1.89,0,0,1,370.41,1855.81Zm3.15-33.3a1.95,1.95,0,1,1-1.95,2A1.89,1.89,0,0,1,373.56,1822.52Zm2.85-66.9a1.95,1.95,0,1,1-2,2A1.89,1.89,0,0,1,376.41,1755.62Zm0,97.5a1.95,1.95,0,1,1-2,2A1.89,1.89,0,0,1,376.41,1853.11Zm1.65-25.8a1.95,1.95,0,1,1-1.95,1.95A1.89,1.89,0,0,1,378.06,1827.32Zm3.45,21.9a2,2,0,1,1-1.95,2A1.89,1.89,0,0,1,381.51,1849.21Zm.45-90.9a1.95,1.95,0,1,1-2,1.95A1.89,1.89,0,0,1,382,1758.32Zm.45,74.1a1.95,1.95,0,1,1-1.95,2A1.89,1.89,0,0,1,382.41,1832.42Zm3.15,12.3a1.95,1.95,0,1,1-1.95,1.95A1.89,1.89,0,0,1,385.56,1844.71Zm1.2-7.5a1.95,1.95,0,1,1-2,2A1.89,1.89,0,0,1,386.76,1837.21Zm.75-81.9a1.95,1.95,0,1,1-2,2A1.89,1.89,0,0,1,387.51,1755.32Zm0,6.6a1.95,1.95,0,1,1-2,2A1.89,1.89,0,0,1,387.51,1761.92Zm0,6.6a1.95,1.95,0,1,1-2,2A1.89,1.89,0,0,1,387.51,1768.52Zm0,6.6a2,2,0,1,1-2,2A1.89,1.89,0,0,1,387.51,1775.12Zm1.95,29.4a1.95,1.95,0,1,1-1.95,1.95A1.89,1.89,0,0,1,389.46,1804.52Zm1.65,37.5a1.95,1.95,0,1,1-1.95,2A1.89,1.89,0,0,1,391.11,1842Zm1.8-6a2,2,0,1,1-1.95,2A1.89,1.89,0,0,1,392.91,1836Zm2.4,11a1.95,1.95,0,1,1-2,1.95A1.89,1.89,0,0,1,395.31,1847Zm.3-42.45a1.95,1.95,0,1,1-2,1.95A1.89,1.89,0,0,1,395.61,1804.52Zm.3,25.35a1.95,1.95,0,1,1-1.95,2A1.89,1.89,0,0,1,395.91,1829.87Zm2.25-6.6a1.95,1.95,0,1,1-1.95,1.95A1.89,1.89,0,0,1,398.16,1823.27Zm1.65,28.65a2,2,0,1,1-1.95,2A1.89,1.89,0,0,1,399.81,1851.91Zm.3-35.1a2,2,0,1,1-2,2A1.89,1.89,0,0,1,400.11,1816.82Zm1.65-12.3a1.95,1.95,0,1,1-2,1.95A1.89,1.89,0,0,1,401.76,1804.52Zm0,5.85a1.95,1.95,0,1,1-2,1.95A1.89,1.89,0,0,1,401.76,1810.37Zm2.1,46.5a1.95,1.95,0,1,1-1.95,1.95A1.89,1.89,0,0,1,403.86,1856.86Zm4.35-52.35a1.95,1.95,0,1,1-2,1.95A1.89,1.89,0,0,1,408.21,1804.52Zm2.1,52.35a1.95,1.95,0,1,1-1.95,1.95A1.89,1.89,0,0,1,410.31,1856.86Zm4.2-52.35a1.95,1.95,0,1,1-2,1.95A1.89,1.89,0,0,1,414.51,1804.52Zm2.25,52.35a1.95,1.95,0,1,1-1.95,1.95A1.89,1.89,0,0,1,416.76,1856.86Zm37.5-102a1.95,1.95,0,1,1-2,2A1.89,1.89,0,0,1,454.26,1754.87Zm0,102a1.95,1.95,0,1,1-2,1.95A1.89,1.89,0,0,1,454.26,1856.86Zm6.45-102a1.95,1.95,0,1,1-2,2A1.89,1.89,0,0,1,460.71,1754.87Zm.15,102a1.95,1.95,0,1,1-1.95,1.95A1.89,1.89,0,0,1,460.86,1856.86Zm6.15-96.15a2,2,0,1,1-2,2A1.89,1.89,0,0,1,467,1760.72Zm0,6.45a1.95,1.95,0,1,1-2,1.95A1.89,1.89,0,0,1,467,1767.17Zm0,6.45a2,2,0,1,1-2,2A1.89,1.89,0,0,1,467,1773.62Zm0,6.45a1.95,1.95,0,1,1-2,1.95A1.89,1.89,0,0,1,467,1780.07Zm0,6.45a2,2,0,1,1-2,2A1.89,1.89,0,0,1,467,1786.52Zm0,6.45a1.95,1.95,0,1,1-2,2A1.89,1.89,0,0,1,467,1793Zm0,6.45a2,2,0,1,1-2,2A1.89,1.89,0,0,1,467,1799.42Zm0,6.45a1.95,1.95,0,1,1-2,2A1.89,1.89,0,0,1,467,1805.87Zm0,6.45a2,2,0,1,1-2,2A1.89,1.89,0,0,1,467,1812.32Zm0,6.45a1.95,1.95,0,1,1-2,2A1.89,1.89,0,0,1,467,1818.77Zm0,6.45a2,2,0,1,1-2,2A1.89,1.89,0,0,1,467,1825.21Zm0,6.45a1.95,1.95,0,1,1-2,2A1.89,1.89,0,0,1,467,1831.67Zm0,6.45a1.95,1.95,0,1,1-2,1.95A1.89,1.89,0,0,1,467,1838.12Zm0,6.45a1.95,1.95,0,1,1-2,2A1.89,1.89,0,0,1,467,1844.56Zm0,6.45a1.95,1.95,0,1,1-2,1.95A1.89,1.89,0,0,1,467,1851Zm.15-96.15a1.95,1.95,0,1,1-2,2A1.89,1.89,0,0,1,467.16,1754.87Zm.3,102a1.95,1.95,0,1,1-1.95,1.95A1.89,1.89,0,0,1,467.46,1856.86Zm4.95-53.7a2,2,0,1,1-1.95,2A1.89,1.89,0,0,1,472.41,1803.17Zm1.05-48.3a1.95,1.95,0,1,1-2,2A1.89,1.89,0,0,1,473.46,1754.87Zm.6,102a1.95,1.95,0,1,1-1.95,1.95A1.89,1.89,0,0,1,474.06,1856.86Zm4.5-53.7a2,2,0,1,1-1.95,2A1.89,1.89,0,0,1,478.56,1803.17Zm1.2-48.3a1.95,1.95,0,1,1-2,2A1.89,1.89,0,0,1,479.76,1754.87Zm.9,102a1.95,1.95,0,1,1-2,1.95A1.89,1.89,0,0,1,480.66,1856.86Zm4-53.7a2,2,0,1,1-2,2A1.89,1.89,0,0,1,484.71,1803.17Zm1.5-48.3a1.95,1.95,0,1,1-2,2A1.89,1.89,0,0,1,486.21,1754.87Zm1,102a1.95,1.95,0,1,1-1.95,1.95A1.89,1.89,0,0,1,487.26,1856.86Zm3.6-53.7a2,2,0,1,1-2,2A1.89,1.89,0,0,1,490.86,1803.17Zm1.95-48.3a1.95,1.95,0,1,1-1.95,2A1.89,1.89,0,0,1,492.81,1754.87Zm1.2,102a1.95,1.95,0,1,1-1.95,1.95A1.89,1.89,0,0,1,494,1856.86Zm3-53.7a2,2,0,1,1-1.95,2A1.89,1.89,0,0,1,497,1803.17Zm2.25-47.85a1.95,1.95,0,1,1-1.95,2A1.89,1.89,0,0,1,499.26,1755.32Zm1.5,101.1a1.95,1.95,0,1,1-2,2A1.89,1.89,0,0,1,500.76,1856.41Zm2.25-53.25a2,2,0,1,1-2,2A1.89,1.89,0,0,1,503,1803.17Zm2.55-46.95a2,2,0,1,1-2,2A1.89,1.89,0,0,1,505.56,1756.22Zm1.8,99.6a1.95,1.95,0,1,1-1.95,1.95A1.89,1.89,0,0,1,507.36,1855.81Zm1.35-55.8a1.95,1.95,0,1,1-2,1.95A1.89,1.89,0,0,1,508.71,1800Zm0,5.25a1.95,1.95,0,1,1-2,1.95A1.89,1.89,0,0,1,508.71,1805.27Zm2.4-46.65a1.95,1.95,0,1,1-2,2A1.89,1.89,0,0,1,511.11,1758.62Zm2.4,95.4a2,2,0,1,1-2,2A1.89,1.89,0,0,1,513.51,1854Zm.75-57.15a2,2,0,1,1-2,2A1.89,1.89,0,0,1,514.26,1796.87Zm.15,10.5a1.95,1.95,0,1,1-2,2A1.89,1.89,0,0,1,514.41,1807.37Zm1.65-45.3a2,2,0,1,1-1.95,2A1.89,1.89,0,0,1,516.06,1762.07Zm2.55,30.15a1.95,1.95,0,1,1-1.95,2A1.89,1.89,0,0,1,518.61,1792.22Zm.45,58.5a2,2,0,1,1-2,2A1.89,1.89,0,0,1,519.06,1850.71Zm.3-39.9a2,2,0,1,1-1.95,2A1.89,1.89,0,0,1,519.36,1810.82Zm.15-43.5a2,2,0,1,1-1.95,2A1.89,1.89,0,0,1,519.51,1767.32Zm1.5,18.9a2,2,0,1,1-1.95,2A1.89,1.89,0,0,1,521,1786.22Zm.45-12.75a1.95,1.95,0,1,1-2,1.95A1.89,1.89,0,0,1,521.46,1773.47Zm.6,6.45a2,2,0,1,1-1.95,2A1.89,1.89,0,0,1,522.06,1779.92Zm1.2,65.85a1.95,1.95,0,1,1-1.95,2A1.89,1.89,0,0,1,523.26,1845.76Zm.3-30.45a2,2,0,1,1-1.95,2A1.89,1.89,0,0,1,523.56,1815.32Zm2.55,24.6a1.95,1.95,0,1,1-2,1.95A1.89,1.89,0,0,1,526.11,1839.92Zm.15-19a2,2,0,1,1-2,2A1.89,1.89,0,0,1,526.26,1820.87Zm1,6.3a2,2,0,1,1-1.95,2A1.89,1.89,0,0,1,527.31,1827.17Zm.15,6.3a2,2,0,1,1-1.95,2A1.89,1.89,0,0,1,527.46,1833.46Zm14.1,4a2,2,0,1,1-2,2A1.89,1.89,0,0,1,541.56,1837.51Zm.75-6.45a1.95,1.95,0,1,1-2,1.95A1.89,1.89,0,0,1,542.31,1831.07Zm.15,12.75a2,2,0,1,1-1.95,2A1.89,1.89,0,0,1,542.46,1843.81Zm2.55-18.75a1.95,1.95,0,1,1-1.95,2A1.89,1.89,0,0,1,545,1825.07Zm.15,24.6a2,2,0,1,1-1.95,2A1.89,1.89,0,0,1,545.16,1849.66Zm2.4-62.25a1.95,1.95,0,1,1-1.95,2A1.89,1.89,0,0,1,547.56,1787.42Zm2.1,66.45a1.95,1.95,0,1,1-1.95,2A1.89,1.89,0,0,1,549.66,1853.86Zm.3-33a2,2,0,1,1-1.95,2A1.89,1.89,0,0,1,550,1820.87Zm3.6-36.3a1.95,1.95,0,1,1-2,1.95A1.89,1.89,0,0,1,553.56,1784.57Zm1.65,71.7a2,2,0,1,1-1.95,2A1.89,1.89,0,0,1,555.21,1856.26Zm.6-38.1a1.95,1.95,0,1,1-2,1.95A1.89,1.89,0,0,1,555.81,1818.17Zm4-35.4a2,2,0,1,1-2,2A1.89,1.89,0,0,1,559.86,1782.77Zm1.5,74.55a1.95,1.95,0,1,1-2,1.95A1.89,1.89,0,0,1,561.36,1857.31Zm.9-40.65a1.95,1.95,0,1,1-2,1.95A1.89,1.89,0,0,1,562.26,1816.67Zm4.35-35.1a1.95,1.95,0,1,1-1.95,1.95A1.89,1.89,0,0,1,566.61,1781.57Zm1.2,75.9a2,2,0,1,1-2,2A1.89,1.89,0,0,1,567.81,1857.46Zm1.2-41.4a2,2,0,1,1-1.95,2A1.89,1.89,0,0,1,569,1816.07Zm4-34.8a2,2,0,1,1-1.95,2A1.89,1.89,0,0,1,573.06,1781.27Zm.9,75.15a1.95,1.95,0,1,1-1.95,2A1.89,1.89,0,0,1,574,1856.41Zm1.65-40.2a1.95,1.95,0,1,1-1.95,2A1.89,1.89,0,0,1,575.61,1816.22Zm3.9-34.65a1.95,1.95,0,1,1-1.95,1.95A1.89,1.89,0,0,1,579.51,1781.57Zm.3,72.6a1.95,1.95,0,1,1-2,2A1.89,1.89,0,0,1,579.81,1854.16Zm2.55-37.2a1.95,1.95,0,1,1-2,2A1.89,1.89,0,0,1,582.36,1817Zm2.85,34a1.95,1.95,0,1,1-1.95,1.95A1.89,1.89,0,0,1,585.21,1851Zm.6-67.95a1.95,1.95,0,1,1-1.95,1.95A1.89,1.89,0,0,1,585.81,1783.07Zm3.15,35.1a1.95,1.95,0,1,1-1.95,1.95A1.89,1.89,0,0,1,589,1818.17Zm.75,28.65a1.95,1.95,0,1,1-1.95,2A1.89,1.89,0,0,1,589.71,1846.81Zm1.35-60.15a1.95,1.95,0,1,1-2,2A1.89,1.89,0,0,1,591.06,1786.67Zm2.7,5.85a1.95,1.95,0,1,1-1.95,2A1.89,1.89,0,0,1,593.76,1792.52ZM595,1799a1.95,1.95,0,1,1-2,1.95A1.89,1.89,0,0,1,595,1799Zm.3,6.6a1.95,1.95,0,1,1-1.95,1.95A1.89,1.89,0,0,1,595.26,1805.57Zm0,6.6a1.95,1.95,0,1,1-1.95,2A1.89,1.89,0,0,1,595.26,1812.17Zm0,6.6a1.95,1.95,0,1,1-1.95,2A1.89,1.89,0,0,1,595.26,1818.77Zm0,6.6a1.95,1.95,0,1,1-1.95,2A1.89,1.89,0,0,1,595.26,1825.37Zm0,6.6a2,2,0,1,1-1.95,2A1.89,1.89,0,0,1,595.26,1832Zm0,6.6a2,2,0,1,1-1.95,2A1.89,1.89,0,0,1,595.26,1838.56Zm0,6.6a2,2,0,1,1-1.95,2A1.89,1.89,0,0,1,595.26,1845.16Zm0,6.9a1.95,1.95,0,1,1-1.95,1.95A1.89,1.89,0,0,1,595.26,1852.06Zm4,4.95a2,2,0,1,1-1.95,2A1.89,1.89,0,0,1,599.31,1857Zm6.15-.15a1.95,1.95,0,1,1-2,1.95A1.89,1.89,0,0,1,605.46,1856.86Zm9-75.15a2,2,0,1,1-2,2A1.89,1.89,0,0,1,614.46,1781.72Zm1.5,75.15a1.95,1.95,0,1,1-2,1.95A1.89,1.89,0,0,1,616,1856.86Zm4.8-75.15a2,2,0,1,1-2,2A1.89,1.89,0,0,1,620.76,1781.72Zm1.8,75.15a1.95,1.95,0,1,1-2,1.95A1.89,1.89,0,0,1,622.56,1856.86Zm4.5-75.15a2,2,0,1,1-1.95,2A1.89,1.89,0,0,1,627.06,1781.72Zm0,6.9a1.95,1.95,0,1,1-1.95,1.95A1.89,1.89,0,0,1,627.06,1788.62Zm0,6.9a1.95,1.95,0,1,1-1.95,2A1.89,1.89,0,0,1,627.06,1795.52Zm0,6.9a2,2,0,1,1-1.95,2A1.89,1.89,0,0,1,627.06,1802.42Zm0,6.9a1.95,1.95,0,1,1-1.95,1.95A1.89,1.89,0,0,1,627.06,1809.32Zm0,6.9a1.95,1.95,0,1,1-1.95,2A1.89,1.89,0,0,1,627.06,1816.22Zm0,6.9a2,2,0,1,1-1.95,2A1.89,1.89,0,0,1,627.06,1823.12Zm0,6.9a2,2,0,1,1-1.95,2A1.89,1.89,0,0,1,627.06,1830Zm0,6.9a1.95,1.95,0,1,1-1.95,1.95A1.89,1.89,0,0,1,627.06,1836.92Zm0,6.9a2,2,0,1,1-1.95,2A1.89,1.89,0,0,1,627.06,1843.81Zm0,6.9a2,2,0,1,1-1.95,2A1.89,1.89,0,0,1,627.06,1850.71Zm2.1,6.15a1.95,1.95,0,1,1-1.95,1.95A1.89,1.89,0,0,1,629.16,1856.86Zm3.6-62.85a1.95,1.95,0,1,1-2,2A1.89,1.89,0,0,1,632.76,1794Zm3,62.85a1.95,1.95,0,1,1-1.95,1.95A1.89,1.89,0,0,1,635.76,1856.86Zm1.8-67.8a2,2,0,1,1-2,2A1.89,1.89,0,0,1,637.56,1789.07Zm4.8,67.8a1.95,1.95,0,1,1-2,1.95A1.89,1.89,0,0,1,642.36,1856.86Zm.75-71.55a1.95,1.95,0,1,1-2,1.95A1.89,1.89,0,0,1,643.11,1785.32Zm5.7-2.7a1.95,1.95,0,1,1-2,2A1.89,1.89,0,0,1,648.81,1782.62Zm6.3-1.2a2,2,0,1,1-2,2A1.89,1.89,0,0,1,655.11,1781.42Zm6.15.15a1.95,1.95,0,1,1-2,1.95A1.89,1.89,0,0,1,661.26,1781.57Z" transform="translate(-320.77 -1450.87)"/></svg>